<svg width="16" height="16" viewBox="0 0 16 16" fill="none" xmlns="http://www.w3.org/2000/svg">
<g id="award-01">
<g id="Icon">
<path d="M8.00004 10.6667C10.5774 10.6667 12.6667 8.57733 12.6667 6C12.6667 3.42267 10.5774 1.33334 8.00004 1.33334C5.42271 1.33334 3.33337 3.42267 3.33337 6C3.33337 8.57733 5.42271 10.6667 8.00004 10.6667Z" fill="#FFE240"/>
<path d="M5.31116 9.81462L4.66671 14.6667L7.72564 12.8313C7.82541 12.7715 7.87529 12.7415 7.92854 12.7298C7.97565 12.7195 8.02443 12.7195 8.07154 12.7298C8.12479 12.7415 8.17467 12.7715 8.27444 12.8313L11.3334 14.6667L10.6896 9.81416M12.6667 6C12.6667 8.57733 10.5774 10.6667 8.00004 10.6667C5.42271 10.6667 3.33337 8.57733 3.33337 6C3.33337 3.42267 5.42271 1.33334 8.00004 1.33334C10.5774 1.33334 12.6667 3.42267 12.6667 6Z" stroke="#171717" stroke-width="1.4" stroke-linecap="round" stroke-linejoin="round"/>
</g>
</g>
</svg>
